<svg xmlns="http://www.w3.org/2000/svg" viewBox="0 0 1040 680" font-family="Segoe UI, Helvetica, Arial, sans-serif">
  <!-- background -->
  <rect x="0" y="0" width="1040" height="680" fill="#2b2d31"/>

  <!-- arrowhead marker -->
  <defs>
    <marker id="arrow" markerWidth="9" markerHeight="9" refX="6" refY="3" orient="auto">
      <path d="M0,0 L6,3 L0,6 Z" fill="#e89a4a"/>
    </marker>
  </defs>

  <!-- title -->
  <text x="520" y="34" fill="#f0f0f0" font-size="22" font-weight="600" text-anchor="middle">FORS — Forest Of Random Subsets (FIPS-205)</text>
  <text x="520" y="56" fill="#9aa0a6" font-size="13" text-anchor="middle">k trees, each of height a (2&#170; leaves). Message digest selects one leaf per tree.</text>

  <!-- ===================== FORS PUBLIC KEY ===================== -->
  <rect x="430" y="78" width="180" height="40" rx="8" fill="#5a3a82" stroke="#b07ad0" stroke-width="2"/>
  <text x="520" y="98" fill="#f3e9ff" font-size="14" font-weight="600" text-anchor="middle">FORS public key</text>
  <text x="520" y="112" fill="#d9c4ee" font-size="11" text-anchor="middle">H( root&#8320;‖…‖root&#8342;&#8331;&#8321; )</text>

  <!-- lines PK -> roots -->
  <line x1="520" y1="118" x2="210" y2="160" stroke="#8a7aa0" stroke-width="1.5"/>
  <line x1="520" y1="118" x2="520" y2="160" stroke="#8a7aa0" stroke-width="1.5"/>
  <line x1="520" y1="118" x2="830" y2="160" stroke="#8a7aa0" stroke-width="1.5"/>

  <!-- ===================== TREE EDGES (drawn first, behind nodes) ===================== -->
  <g stroke="#5b6068" stroke-width="1.6">
    <!-- tree 0 (center 210) -->
    <line x1="210" y1="178" x2="150" y2="255"/><line x1="210" y1="178" x2="270" y2="255"/>
    <line x1="150" y1="255" x2="120" y2="340"/><line x1="150" y1="255" x2="180" y2="340"/>
    <line x1="270" y1="255" x2="240" y2="340"/><line x1="270" y1="255" x2="300" y2="340"/>
    <!-- tree 1 (center 520) -->
    <line x1="520" y1="178" x2="460" y2="255"/><line x1="520" y1="178" x2="580" y2="255"/>
    <line x1="460" y1="255" x2="430" y2="340"/><line x1="460" y1="255" x2="490" y2="340"/>
    <line x1="580" y1="255" x2="550" y2="340"/><line x1="580" y1="255" x2="610" y2="340"/>
    <!-- tree 2 (center 830) -->
    <line x1="830" y1="178" x2="770" y2="255"/><line x1="830" y1="178" x2="890" y2="255"/>
    <line x1="770" y1="255" x2="740" y2="340"/><line x1="770" y1="255" x2="800" y2="340"/>
    <line x1="890" y1="255" x2="860" y2="340"/><line x1="890" y1="255" x2="920" y2="340"/>
  </g>

  <!-- ===================== NODES ===================== -->
  <!-- roots (green) -->
  <g>
    <circle cx="210" cy="175" r="18" fill="#2f6b4a" stroke="#5ad08a" stroke-width="2"/>
    <circle cx="520" cy="175" r="18" fill="#2f6b4a" stroke="#5ad08a" stroke-width="2"/>
    <circle cx="830" cy="175" r="18" fill="#2f6b4a" stroke="#5ad08a" stroke-width="2"/>
    <text x="210" y="180" fill="#dffaeb" font-size="11" text-anchor="middle">root&#8320;</text>
    <text x="520" y="180" fill="#dffaeb" font-size="11" text-anchor="middle">root&#8321;</text>
    <text x="830" y="180" fill="#dffaeb" font-size="11" text-anchor="middle">root&#8342;&#8331;&#8321;</text>
  </g>

  <!-- level-1 internal nodes -->
  <!-- default grey; blue = auth node -->
  <g font-size="9" text-anchor="middle">
    <!-- tree0 -->
    <circle cx="150" cy="255" r="13" fill="#2f5d8a" stroke="#5aa0e0" stroke-width="2"/>
    <circle cx="270" cy="255" r="13" fill="#3c4046" stroke="#6b7280" stroke-width="1.5"/>
    <!-- tree1 -->
    <circle cx="460" cy="255" r="13" fill="#3c4046" stroke="#6b7280" stroke-width="1.5"/>
    <circle cx="580" cy="255" r="13" fill="#2f5d8a" stroke="#5aa0e0" stroke-width="2"/>
    <!-- tree2 -->
    <circle cx="770" cy="255" r="13" fill="#3c4046" stroke="#6b7280" stroke-width="1.5"/>
    <circle cx="890" cy="255" r="13" fill="#2f5d8a" stroke="#5aa0e0" stroke-width="2"/>
  </g>

  <!-- leaves -->
  <!-- orange = selected (secret revealed); blue = auth path; grey = unused -->
  <g>
    <!-- tree0 -->
    <circle cx="120" cy="340" r="13" fill="#3c4046" stroke="#6b7280" stroke-width="1.5"/>
    <circle cx="180" cy="340" r="13" fill="#3c4046" stroke="#6b7280" stroke-width="1.5"/>
    <circle cx="240" cy="340" r="14" fill="#b5621e" stroke="#f0a85a" stroke-width="2.5"/>
    <circle cx="300" cy="340" r="13" fill="#2f5d8a" stroke="#5aa0e0" stroke-width="2"/>
    <!-- tree1 -->
    <circle cx="430" cy="340" r="14" fill="#b5621e" stroke="#f0a85a" stroke-width="2.5"/>
    <circle cx="490" cy="340" r="13" fill="#2f5d8a" stroke="#5aa0e0" stroke-width="2"/>
    <circle cx="550" cy="340" r="13" fill="#3c4046" stroke="#6b7280" stroke-width="1.5"/>
    <circle cx="610" cy="340" r="13" fill="#3c4046" stroke="#6b7280" stroke-width="1.5"/>
    <!-- tree2 -->
    <circle cx="740" cy="340" r="13" fill="#2f5d8a" stroke="#5aa0e0" stroke-width="2"/>
    <circle cx="800" cy="340" r="14" fill="#b5621e" stroke="#f0a85a" stroke-width="2.5"/>
    <circle cx="860" cy="340" r="13" fill="#3c4046" stroke="#6b7280" stroke-width="1.5"/>
    <circle cx="920" cy="340" r="13" fill="#3c4046" stroke="#6b7280" stroke-width="1.5"/>
  </g>

  <!-- tree labels -->
  <text x="210" y="378" fill="#9aa0a6" font-size="11" text-anchor="middle">tree 0</text>
  <text x="520" y="378" fill="#9aa0a6" font-size="11" text-anchor="middle">tree 1</text>
  <text x="830" y="378" fill="#9aa0a6" font-size="11" text-anchor="middle">tree k&#8722;1</text>
  <text x="670" y="265" fill="#cfa14a" font-size="22" text-anchor="middle">&#183;&#183;&#183;</text>

  <!-- ===================== MESSAGE DIGEST ===================== -->
  <g>
    <rect x="120" y="442" width="180" height="34" rx="6" fill="#3a3d42" stroke="#e89a4a" stroke-width="1.5"/>
    <rect x="430" y="442" width="180" height="34" rx="6" fill="#3a3d42" stroke="#e89a4a" stroke-width="1.5"/>
    <rect x="740" y="442" width="180" height="34" rx="6" fill="#3a3d42" stroke="#e89a4a" stroke-width="1.5"/>
    <text x="210" y="464" fill="#f0d4b4" font-size="12" text-anchor="middle">idx&#8320; = 2</text>
    <text x="520" y="464" fill="#f0d4b4" font-size="12" text-anchor="middle">idx&#8321; = 0</text>
    <text x="830" y="464" fill="#f0d4b4" font-size="12" text-anchor="middle">idx&#8342;&#8331;&#8321; = 1</text>
  </g>

  <!-- arrows digest -> selected leaf -->
  <line x1="240" y1="442" x2="240" y2="358" stroke="#e89a4a" stroke-width="1.8" marker-end="url(#arrow)"/>
  <line x1="520" y1="442" x2="432" y2="358" stroke="#e89a4a" stroke-width="1.8" marker-end="url(#arrow)"/>
  <line x1="830" y1="442" x2="801" y2="358" stroke="#e89a4a" stroke-width="1.8" marker-end="url(#arrow)"/>

  <!-- ===================== LEGEND ===================== -->
  <rect x="120" y="510" width="800" height="138" rx="10" fill="#33363b" stroke="#4a4e54" stroke-width="1"/>
  <text x="140" y="534" fill="#f0f0f0" font-size="14" font-weight="600">Legend</text>

  <circle cx="150" cy="558" r="9" fill="#b5621e" stroke="#f0a85a" stroke-width="2.5"/>
  <text x="170" y="562" fill="#dddddd" font-size="12">Selected leaf — secret value sk revealed in signature</text>

  <circle cx="150" cy="584" r="9" fill="#2f5d8a" stroke="#5aa0e0" stroke-width="2"/>
  <text x="170" y="588" fill="#dddddd" font-size="12">Authentication-path node (sibling) included in signature</text>

  <circle cx="150" cy="610" r="9" fill="#2f6b4a" stroke="#5ad08a" stroke-width="2"/>
  <text x="170" y="614" fill="#dddddd" font-size="12">Sub-tree root (recomputed during verification)</text>

  <rect x="556" y="550" width="18" height="16" rx="4" fill="#5a3a82" stroke="#b07ad0" stroke-width="2"/>
  <text x="582" y="563" fill="#dddddd" font-size="12">FORS public key; hash of all k roots</text>

  <circle cx="565" cy="584" r="9" fill="#3c4046" stroke="#6b7280" stroke-width="1.5"/>
  <text x="582" y="588" fill="#dddddd" font-size="12">Unused / recomputed node</text>

  <text x="556" y="614" fill="#9aa0a6" font-size="11.5">Signature = (sk&#7522;, auth&#7522;) for i = 0 … k&#8722;1</text>
</svg>
